#N canvas 76 90 1105 534 12;
#X obj 347 480 outlet;
#X obj 418 481 outlet;
#X obj 499 484 outlet;
#X obj 254 70 inlet;
#X obj 259 133 route connect;
#N canvas 832 255 577 489 serial 0;
#X obj 20 3 inlet;
#X obj 86 2 inlet;
#X obj 173 5 inlet;
#X obj 115 436 outlet;
#X obj 281 442 outlet;
#X obj 272 57 loadbang;
#X obj 275 92 tgl 15 0 empty empty empty 17 7 0 10 -262144 -1 -1 0
1;
#X obj 235 115 metro 5;
#X obj 215 143 comport a 115200;
#X obj 221 26 loadmess print;
#X obj 224 265 prepend from;
#X obj 304 172 route read;
#X obj 295 202 sel 0 -1;
#X obj 53 83 prepend port;
#X obj 72 194 route port;
#X obj 72 230 t b l clear;
#X obj 116 277 iter;
#N canvas 788 354 428 529 autoselect 0;
#X obj 123 33 inlet;
#X obj 316 30 inlet;
#X obj 181 449 outlet;
#N canvas 497 61 882 372 usbmodem 0;
#X obj 336 10 inlet;
#X obj 291 333 outlet;
#X obj 209 127 route usbmodem1411;
#X obj 351 127 route usbmodem1421;
#X obj 491 127 route usbmodem1431;
#X obj 636 127 route usbmodem1441;
#X obj 139 211 route usbmodem1451;
#X obj 279 211 route usbmodem1461;
#X obj 421 211 route usbmodem1471;
#X obj 561 211 route usbmodem1481;
#X obj 706 211 route usbmodem1491;
#X msg 69 155 usbmodem1401;
#X obj 69 127 route usbmodem1401;
#X msg 209 155 usbmodem1411;
#X msg 351 155 usbmodem1421;
#X msg 491 155 usbmodem1431;
#X msg 139 239 usbmodem1451;
#X msg 279 239 usbmodem1461;
#X msg 421 239 usbmodem1471;
#X msg 561 239 usbmodem1481;
#X msg 706 239 usbmodem1491;
#X msg 636 155 usbmodem1441;
#X connect 0 0 2 0;
#X connect 0 0 3 0;
#X connect 0 0 4 0;
#X connect 0 0 5 0;
#X connect 0 0 6 0;
#X connect 0 0 7 0;
#X connect 0 0 8 0;
#X connect 0 0 9 0;
#X connect 0 0 10 0;
#X connect 0 0 12 0;
#X connect 2 0 13 0;
#X connect 3 0 14 0;
#X connect 4 0 15 0;
#X connect 5 0 21 0;
#X connect 6 0 16 0;
#X connect 7 0 17 0;
#X connect 8 0 18 0;
#X connect 9 0 19 0;
#X connect 10 0 20 0;
#X connect 11 0 1 0;
#X connect 12 0 11 0;
#X connect 13 0 1 0;
#X connect 14 0 1 0;
#X connect 15 0 1 0;
#X connect 16 0 1 0;
#X connect 17 0 1 0;
#X connect 18 0 1 0;
#X connect 19 0 1 0;
#X connect 20 0 1 0;
#X connect 21 0 1 0;
#X restore 158 144 pd usbmodem;
#X obj 191 194 zl reg;
#X obj 212 325 prepend symbol;
#N canvas 365 273 690 395 com 0;
#X obj 329 8 inlet;
#X obj 293 329 outlet;
#X obj 107 133 route COM0;
#X msg 107 161 COM0;
#X obj 247 133 route COM1;
#X msg 247 161 COM1;
#X obj 389 133 route COM2;
#X msg 389 161 COM2;
#X obj 529 133 route COM3;
#X msg 529 161 COM3;
#X obj 674 133 route COM4;
#X msg 674 161 COM4;
#X obj 177 217 route COM5;
#X msg 177 245 COM5;
#X obj 317 217 route COM6;
#X msg 317 245 COM6;
#X obj 459 217 route COM7;
#X msg 459 245 COM7;
#X obj 599 217 route COM8;
#X msg 599 245 COM9;
#X obj 744 217 route COM9;
#X msg 744 245 COM9;
#X connect 0 0 2 0;
#X connect 0 0 4 0;
#X connect 0 0 6 0;
#X connect 0 0 8 0;
#X connect 0 0 10 0;
#X connect 0 0 12 0;
#X connect 0 0 14 0;
#X connect 0 0 16 0;
#X connect 0 0 18 0;
#X connect 0 0 20 0;
#X connect 2 0 3 0;
#X connect 3 0 1 0;
#X connect 4 0 5 0;
#X connect 5 0 1 0;
#X connect 6 0 7 0;
#X connect 7 0 1 0;
#X connect 8 0 9 0;
#X connect 9 0 1 0;
#X connect 10 0 11 0;
#X connect 11 0 1 0;
#X connect 12 0 13 0;
#X connect 13 0 1 0;
#X connect 14 0 15 0;
#X connect 15 0 1 0;
#X connect 16 0 17 0;
#X connect 17 0 1 0;
#X connect 18 0 19 0;
#X connect 19 0 1 0;
#X connect 20 0 21 0;
#X connect 21 0 1 0;
#X restore 331 143 pd com;
#X text 130 109 OSX;
#X text 320 107 WIN;
#X obj 262 190 zl reg;
#X obj 263 223 zl sort -1;
#X obj 264 259 zl sort -1;
#X connect 0 0 3 0;
#X connect 0 0 6 0;
#X connect 1 0 4 0;
#X connect 1 0 9 0;
#X connect 3 0 4 1;
#X connect 4 0 5 0;
#X connect 5 0 2 0;
#X connect 6 0 9 1;
#X connect 9 0 10 0;
#X connect 10 0 11 0;
#X connect 11 0 5 0;
#X restore 6 318 pd autoselect;
#X obj 111 318 prepend append;
#X obj 90 48 t b print;
#X obj 347 267 prepend from_length;
#X connect 0 0 13 0;
#X connect 1 0 19 0;
#X connect 2 0 8 0;
#X connect 5 0 6 0;
#X connect 6 0 7 0;
#X connect 7 0 8 0;
#X connect 8 0 10 0;
#X connect 8 1 11 0;
#X connect 8 1 14 0;
#X connect 9 0 8 0;
#X connect 10 0 4 0;
#X connect 11 0 12 0;
#X connect 12 2 20 0;
#X connect 13 0 8 0;
#X connect 14 0 15 0;
#X connect 15 0 17 1;
#X connect 15 1 16 0;
#X connect 15 2 3 0;
#X connect 16 0 18 0;
#X connect 16 0 17 0;
#X connect 17 0 3 0;
#X connect 18 0 3 0;
#X connect 19 0 17 1;
#X connect 19 1 8 0;
#X connect 20 0 4 0;
#X restore 230 171 pd serial;
#X obj 253 225 bng 15 250 50 0 empty empty empty 17 7 0 10 -262144
-1 -1;
#X msg 509 173 read -c crowpd.lua;
#X obj 509 70 loadbang;
#X obj 512 237 ofelia define -c23;
#X msg 132 355;
#X obj 372 278 netsend 1;
#X obj 763 265 netreceive u -b 12000;
#X obj 763 292 oscparse;
#X obj 764 323 list trim;
#X obj 765 352 route addr 1 addr2;
#X obj 737 413 unpack;
#X obj 804 414 unpack;
#X connect 3 0 4 0;
#X connect 4 0 5 1;
#X connect 5 0 10 0;
#X connect 6 0 1 0;
#X connect 7 0 9 0;
#X connect 8 0 7 0;
#X connect 9 2 2 0;
#X connect 12 0 13 0;
#X connect 13 0 14 0;
#X connect 14 0 15 0;
#X connect 15 0 16 0;
#X connect 15 1 17 0;
