#N canvas 367 127 1105 534 12;
#X obj 347 480 outlet;
#X obj 418 481 outlet;
#X obj 499 484 outlet;
#X obj 254 70 inlet;
#X obj 259 133 route connect;
#N canvas -8 -8 1366 696 serial 0;
#X obj 20 3 inlet;
#X obj 86 2 inlet;
#X obj 173 5 inlet;
#X obj 115 436 outlet;
#X obj 281 442 outlet;
#X obj 272 57 loadbang;
#X obj 275 92 tgl 15 0 empty empty empty 17 7 0 10 -262144 -1 -1 0
1;
#X obj 235 115 metro 5;
#X obj 215 143 comport a 115200;
#X obj 221 26 loadmess print;
#X obj 224 265 prepend from;
#X obj 304 172 route read;
#X obj 295 202 sel 0 -1;
#X obj 53 83 prepend port;
#X obj 72 194 route port;
#X obj 72 230 t b l clear;
#X obj 116 277 iter;
#N canvas 567 96 428 529 autoselect 0;
#X obj 123 33 inlet;
#X obj 316 30 inlet;
#X obj 181 449 outlet;
#X obj 191 194 zl reg;
#X obj 212 325 prepend symbol;
#X text 130 109 OSX;
#X text 320 107 WIN;
#X obj 262 190 zl reg;
#X obj 263 223 zl sort -1;
#X obj 264 259 zl sort -1;
#X obj 92 148 regex usbmodem14[0-9]1;
#X obj 301 142 regex COM[0-9];
#X connect 0 0 10 0;
#X connect 0 0 11 0;
#X connect 1 0 3 0;
#X connect 1 0 7 0;
#X connect 3 0 4 0;
#X connect 4 0 2 0;
#X connect 7 0 8 0;
#X connect 8 0 9 0;
#X connect 9 0 4 0;
#X connect 10 1 3 1;
#X connect 11 1 7 1;
#X restore 6 318 pd autoselect;
#X obj 111 318 prepend append;
#X obj 90 48 t b print;
#X obj 347 267 prepend from_length;
#X connect 0 0 13 0;
#X connect 1 0 19 0;
#X connect 2 0 8 0;
#X connect 5 0 6 0;
#X connect 6 0 7 0;
#X connect 7 0 8 0;
#X connect 8 0 10 0;
#X connect 8 1 11 0;
#X connect 8 1 14 0;
#X connect 9 0 8 0;
#X connect 10 0 4 0;
#X connect 11 0 12 0;
#X connect 12 2 20 0;
#X connect 13 0 8 0;
#X connect 14 0 15 0;
#X connect 15 0 17 1;
#X connect 15 1 16 0;
#X connect 15 2 3 0;
#X connect 16 0 18 0;
#X connect 16 0 17 0;
#X connect 17 0 3 0;
#X connect 18 0 3 0;
#X connect 19 0 17 1;
#X connect 19 1 8 0;
#X connect 20 0 4 0;
#X restore 230 171 pd serial;
#X obj 417 433 bng 15 250 50 0 empty empty empty 17 7 0 10 -262144
-1 -1;
#X msg 509 173 read -c crowpd.lua;
#X obj 509 70 loadbang;
#X obj 489 219 ofelia define -c23;
#X obj 98 294 regex usbmodem;
#X obj 230 295 regex COM;
#X msg 134 223;
#X connect 3 0 4 0;
#X connect 4 0 5 1;
#X connect 4 1 9 1;
#X connect 5 0 12 0;
#X connect 5 1 9 0;
#X connect 6 0 1 0;
#X connect 7 0 9 0;
#X connect 8 0 7 0;
#X connect 9 0 5 2;
#X connect 9 1 0 0;
#X connect 9 2 2 0;
#X connect 10 1 6 0;
#X connect 11 1 6 0;
#X connect 12 0 10 0;
#X connect 12 0 11 0;
